
<svg width="512" height="512" viewBox="0 0 512 512" fill="none" xmlns="http://www.w3.org/2000/svg">
  <circle cx="256" cy="256" r="256" fill="#0f172a"/>
  <!-- Zlatá žiara v pozadí -->
  <defs>
    <radialGradient id="glow" cx="0" cy="0" r="1" gradientUnits="userSpaceOnUse" gradientTransform="translate(256 256) rotate(90) scale(200)">
      <stop stop-color="#f59e0b" stop-opacity="0.3"/>
      <stop offset="1" stop-color="#f59e0b" stop-opacity="0"/>
    </radialGradient>
  </defs>
  <circle cx="256" cy="256" r="200" fill="url(#glow)"/>
  
  <!-- Koruna -->
  <path d="M180 160L210 190L256 140L302 190L332 160L320 230H192L180 160Z" fill="#f59e0b"/>
  
  <!-- Štýlové V -->
  <path d="M120 200L256 420L392 200H320L256 320L192 200H120Z" fill="white"/>
  
  <!-- Boss Okuliare -->
  <rect x="180" y="240" width="152" height="30" rx="4" fill="#0f172a"/>
  <path d="M185 245H245V265H195C189.477 265 185 260.523 185 255V245Z" fill="#334155"/>
  <path d="M267 245H327V255C327 260.523 322.523 265 317 265H267V245Z" fill="#334155"/>
  <rect x="245" y="248" width="22" height="6" fill="#f59e0b" fill-opacity="0.5"/>
</svg>
